<svg xmlns="http://www.w3.org/2000/svg" viewBox="0 0 300 300">
  <g>
    <path d="M150 50 C 180 50, 200 80, 200 150 C 200 220, 180 250, 150 250 L 100 250 L 100 50 L 150 50 Z" fill="#000000"/>
    
    <!-- Left Wing -->
    <path d="M90 150 C 80 120, 70 100, 60 110 C 50 120, 60 150, 80 180 C 100 210, 120 230, 130 220 C 140 210, 130 180, 110 150" fill="none" stroke="#000000" stroke-width="2"/>
    <path d="M90 150 C 80 130, 70 120, 60 130 C 50 140, 60 170, 80 200 C 100 230, 120 250, 130 240 C 140 230, 130 200, 110 170" fill="none" stroke="#000000" stroke-width="2"/>
    <path d="M90 150 C 80 140, 70 140, 60 150 C 50 160, 60 190, 80 220 C 100 250, 120 270, 130 260 C 140 250, 130 220, 110 190" fill="none" stroke="#000000" stroke-width="2"/>
    <path d="M90 150 C 80 150, 70 160, 60 170 C 50 180, 60 210, 80 240 C 100 270, 120 290, 130 280 C 140 270, 130 240, 110 210" fill="none" stroke="#000000" stroke-width="2"/>
    
    <!-- Right Wing -->
    <path d="M210 150 C 220 120, 230 100, 240 110 C 250 120, 240 150, 220 180 C 200 210, 180 230, 170 220 C 160 210, 170 180, 190 150" fill="none" stroke="#000000" stroke-width="2"/>
    <path d="M210 150 C 220 130, 230 120, 240 130 C 250 140, 240 170, 220 200 C 200 230, 180 250, 170 240 C 160 230, 170 200, 190 170" fill="none" stroke="#000000" stroke-width="2"/>
    <path d="M210 150 C 220 140, 230 140, 240 150 C 250 160, 240 190, 220 220 C 200 250, 180 270, 170 260 C 160 250, 170 220, 190 190" fill="none" stroke="#000000" stroke-width="2"/>
    <path d="M210 150 C 220 150, 230 160, 240 170 C 250 180, 240 210, 220 240 C 200 270, 180 290, 170 280 C 160 270, 170 240, 190 210" fill="none" stroke="#000000" stroke-width="2"/>
  </g>
</svg>
