<svg xmlns="http://www.w3.org/2000/svg" viewBox="0 0 500 200">
  <g>
    <path d="M100 30 C 120 30, 130 50, 130 100 C 130 150, 120 170, 100 170 L 70 170 L 70 30 L 100 30 Z" fill="#000000"/>
    
    <!-- Left Wing -->
    <path d="M60 100 C 50 80, 40 70, 30 80 C 20 90, 30 110, 50 130 C 70 150, 90 160, 100 150 C 110 140, 100 120, 80 100" fill="none" stroke="#000000" stroke-width="1.5"/>
    <path d="M60 100 C 50 90, 40 90, 30 100 C 20 110, 30 130, 50 150 C 70 170, 90 180, 100 170 C 110 160, 100 140, 80 120" fill="none" stroke="#000000" stroke-width="1.5"/>
    <path d="M60 100 C 50 100, 40 110, 30 120 C 20 130, 30 150, 50 170 C 70 190, 90 200, 100 190 C 110 180, 100 160, 80 140" fill="none" stroke="#000000" stroke-width="1.5"/>
    
    <!-- Right Wing -->
    <path d="M140 100 C 150 80, 160 70, 170 80 C 180 90, 170 110, 150 130 C 130 150, 110 160, 100 150 C 90 140, 100 120, 120 100" fill="none" stroke="#000000" stroke-width="1.5"/>
    <path d="M140 100 C 150 90, 160 90, 170 100 C 180 110, 170 130, 150 150 C 130 170, 110 180, 100 170 C 90 160, 100 140, 120 120" fill="none" stroke="#000000" stroke-width="1.5"/>
    <path d="M140 100 C 150 100, 160 110, 170 120 C 180 130, 170 150, 150 170 C 130 190, 110 200, 100 190 C 90 180, 100 160, 120 140" fill="none" stroke="#000000" stroke-width="1.5"/>
  </g>
  
  <!-- DXM Text -->
  <text x="200" y="100" font-family="Arial" font-weight="bold" font-size="24" fill="#000000">DXM</text>
  
  <!-- Productions Text -->
  <text x="260" y="100" font-family="Arial" font-size="20" fill="#000000">PRODUCTIONS</text>
</svg>
